<?xml version="1.0" encoding="utf-8"?>
<!-- Generator: Adobe Illustrator 23.0.4, SVG Export Plug-In . SVG Version: 6.00 Build 0)  -->
<svg version="1.1" id="Layer_1" 
  xmlns="http://www.w3.org/2000/svg" 
  xmlns:xlink="http://www.w3.org/1999/xlink" x="0px" y="0px" viewBox="0 0 496.36 152.49" style="enable-background:new 0 0 496.36 152.49;" xml:space="preserve">
  <style type="text/css">
	.st0{enable-background:new    ;}
	.st1{fill:#FFFFFF;}
  </style>
  <g class="st0">
    <path class="st1" d="M109.03,18.4c0,2.16-0.85,4.55-2.56,7.18c-1.71,2.63-3.9,5.28-6.57,7.95c-2.67,2.67-5.65,5.28-8.93,7.82
		c-3.28,2.54-6.51,4.82-9.7,6.84c-2.65,1.66-5.2,3.18-7.65,4.55c-2.45,1.37-4.74,2.66-6.87,3.87c-2.13,1.21-4.08,2.37-5.83,3.47
		c-1.75,1.1-3.28,2.21-4.58,3.34c3.23,0.58,6.11,1.16,8.62,1.72c2.52,0.56,4.51,1.22,6,1.99c1.08,0.76,2.18,1.9,3.3,3.4
		c1.12,1.5,2.13,3.04,3.03,4.62c0.9,1.57,1.63,3,2.19,4.28c0.56,1.28,0.84,2.05,0.84,2.32c0,1.98-0.51,4.07-1.52,6.27
		c-1.01,2.2-2.4,4.39-4.18,6.57c-1.77,2.18-3.89,4.28-6.33,6.3c-2.45,2.02-5.12,3.85-8.02,5.49c-2.9,1.64-5.96,3.03-9.2,4.18
		c-3.23,1.14-6.51,1.9-9.84,2.26c-1.48-1.21-2.92-2.5-4.31-3.87c-1.39-1.37-2.65-2.65-3.77-3.84c-1.12-1.19-2.07-2.22-2.83-3.1
		c-0.76-0.88-1.24-1.42-1.42-1.65c-1.62,2.52-3.26,4.81-4.92,6.87c-1.66,2.07-3.31,3.81-4.95,5.22c-1.64,1.41-3.28,2.49-4.92,3.23
		c-1.64,0.74-3.27,1.07-4.89,0.98c-0.67-0.04-1.37-0.3-2.09-0.78c-0.72-0.47-1.42-1.07-2.09-1.79c-0.67-0.72-1.31-1.51-1.92-2.36
		c-0.61-0.85-1.15-1.67-1.62-2.46s-0.84-1.5-1.11-2.16S0,105.99,0,105.72c0-4.72,1-9.97,3-15.77c2-5.79,4.73-11.79,8.19-17.99
		s7.55-12.41,12.26-18.63c4.72-6.22,9.79-12.12,15.23-17.69c1.8-6.47,3.26-12.76,4.38-18.87c1.12-6.11,1.73-11.7,1.82-16.78
		c2.96,1.57,5.35,3.11,7.14,4.62c1.8,1.5,3.21,2.84,4.25,4.01c1.17,1.39,2.02,2.72,2.56,3.98c0.27,0.81,0.4,1.95,0.4,3.44
		c0,0.27-0.01,0.55-0.03,0.84c-0.02,0.29-0.06,0.6-0.1,0.91c6.29-4.49,12.54-8.07,18.77-10.75c6.22-2.67,12.18-4.01,17.89-4.01
		c0.72,0,1.55,0.27,2.49,0.81s1.9,1.26,2.86,2.16c0.97,0.9,1.93,1.9,2.9,3c0.97,1.1,1.82,2.22,2.56,3.37
		c0.74,1.15,1.34,2.25,1.79,3.3C108.8,16.72,109.03,17.63,109.03,18.4z M9.5,103.84c0.4,0,1-0.51,1.79-1.52
		c0.79-1.01,1.71-2.43,2.76-4.25c1.06-1.82,2.22-4.02,3.5-6.6c1.28-2.58,2.62-5.43,4.01-8.56c1.39-3.12,2.82-6.48,4.28-10.07
		c1.46-3.59,2.91-7.32,4.35-11.19c-2.65,3.37-5.14,6.77-7.48,10.21c-2.34,3.44-4.44,6.86-6.3,10.28c-1.86,3.41-3.46,6.79-4.78,10.14
		c-1.33,3.35-2.3,6.59-2.93,9.74c-0.13,0.63-0.1,1.09,0.1,1.38S9.23,103.84,9.5,103.84z M45.21,66.91
		c-2.38,6.11-4.93,12.03-7.65,17.76c-2.72,5.73-5.56,10.91-8.52,15.53c5.12-0.45,9.88-1.2,14.29-2.26c4.4-1.05,8.38-2.46,11.93-4.21
		c3.55-1.75,6.66-3.91,9.33-6.47c2.67-2.56,4.86-5.57,6.57-9.03c-0.9-0.49-1.88-0.94-2.93-1.35c-1.06-0.4-2.17-0.76-3.34-1.08
		c-1.17-0.31-2.35-0.59-3.54-0.84c-1.19-0.25-2.35-0.48-3.47-0.71c-2.61-0.45-5.3-0.81-8.09-1.08c-0.63-0.09-1.36-0.76-2.19-2.02
		C46.77,69.9,45.98,68.48,45.21,66.91z M55.73,34.9c-0.76,2.79-1.61,5.69-2.53,8.73c-0.92,3.03-1.92,6.17-3,9.4
		c4.04-3.28,8.39-6.38,13.04-9.3c4.65-2.92,9.27-5.9,13.85-8.93c4.58-3.03,8.92-6.27,13-9.7c4.09-3.44,7.59-7.33,10.51-11.69
		c0.18-0.22,0.26-0.49,0.24-0.81c-0.02-0.31-0.12-0.62-0.3-0.91c-0.18-0.29-0.42-0.54-0.71-0.74c-0.29-0.2-0.64-0.3-1.04-0.3
		c-2.52,0-5.4,0.6-8.66,1.79c-3.26,1.19-6.75,2.85-10.48,4.99c-3.73,2.13-7.63,4.69-11.69,7.68C63.89,28.09,59.81,31.36,55.73,34.9z
		"/>
    <path class="st1" d="M125.33,88.61c-4.09,2.79-8.28,5.53-12.57,8.22c-4.29,2.7-8.55,5.39-12.77,8.09
		c-0.76,2.33-1.61,4.79-2.53,7.38c-0.92,2.58-2.12,5.6-3.6,9.06c-1.98,4.49-4.3,8.64-6.97,12.43c-2.67,3.8-5.44,7.08-8.29,9.84
		c-2.85,2.76-5.67,4.93-8.46,6.5c-2.78,1.57-5.28,2.36-7.48,2.36c-0.72,0-1.56-0.37-2.53-1.11c-0.97-0.74-1.89-1.62-2.76-2.63
		c-0.88-1.01-1.62-2.05-2.22-3.13s-0.91-1.95-0.91-2.63c0-2.65,0.76-5.36,2.29-8.12c1.53-2.76,3.64-5.56,6.33-8.39
		s5.89-5.69,9.57-8.59c3.68-2.9,7.68-5.83,11.99-8.79c1.17-3.33,2.31-6.73,3.44-10.21c1.12-3.48,2.19-6.87,3.2-10.17
		c1.01-3.3,1.95-6.42,2.83-9.37c0.88-2.94,1.65-5.51,2.32-7.71c0.67-2.2,1.23-3.94,1.68-5.22c0.45-1.28,0.74-1.92,0.88-1.92
		c0.27,0,0.98,0.34,2.12,1.01s2.34,1.47,3.57,2.39c1.23,0.92,2.35,1.84,3.34,2.76c0.99,0.92,1.48,1.63,1.48,2.12
		c0,0.23-0.02,0.43-0.07,0.61c-0.05,0.18-0.11,0.38-0.2,0.61c-0.9,2.7-1.68,5.17-2.36,7.41c-0.67,2.25-1.28,4.32-1.82,6.23
		s-1.03,3.68-1.48,5.32c-0.45,1.64-0.88,3.2-1.28,4.68c3.37-2.11,6.74-4.2,10.11-6.27c3.37-2.07,6.74-4.18,10.11-6.33L125.33,88.61z
		 M78.63,123.65c0.45-0.9,0.88-1.84,1.28-2.83c0.4-0.99,0.83-2.02,1.28-3.1c-2.87,2.16-5.5,4.33-7.88,6.54
		c-2.38,2.2-4.44,4.4-6.17,6.6c-1.73,2.2-3.08,4.41-4.04,6.64c-0.97,2.22-1.45,4.48-1.45,6.77c0,0.63,0.25,0.94,0.74,0.94
		c0.81,0,1.9-0.64,3.27-1.92c1.37-1.28,2.82-2.96,4.35-5.02c1.53-2.07,3.06-4.38,4.58-6.94C76.11,128.77,77.46,126.21,78.63,123.65z
		 M119.94,45.28c-0.05,0.18-0.21,0.62-0.51,1.31c-0.29,0.7-0.64,1.51-1.04,2.43c-0.4,0.92-0.87,1.89-1.38,2.9
		c-0.52,1.01-1.02,1.94-1.52,2.8c-0.49,0.85-0.97,1.56-1.42,2.12c-0.45,0.56-0.81,0.84-1.08,0.84c-0.81-0.04-1.79-0.29-2.93-0.74
		c-1.15-0.45-2.25-0.95-3.3-1.52c-1.06-0.56-1.95-1.11-2.7-1.65s-1.11-0.92-1.11-1.15c0-0.99,0.27-2.25,0.81-3.77
		c0.54-1.53,1.18-2.99,1.92-4.38c0.74-1.39,1.48-2.59,2.22-3.6c0.74-1.01,1.29-1.52,1.65-1.52c0.81,0,1.8,0.26,2.96,0.77
		c1.17,0.52,2.3,1.11,3.4,1.79c1.1,0.67,2.04,1.34,2.83,1.99C119.54,44.55,119.94,45.01,119.94,45.28z"/>
    <path class="st1" d="M129.43,98.31c0,1.35,0.49,2.02,1.48,2.02c1.03,0,2.4-0.82,4.11-2.46c1.71-1.64,3.48-3.72,5.32-6.23
		c-0.09-0.49-0.15-0.93-0.17-1.31c-0.02-0.38-0.03-0.73-0.03-1.04c0-0.9,0.1-1.96,0.3-3.2c0.2-1.23,0.71-2.64,1.52-4.21
		c0.54-1.21,1.19-2.4,1.95-3.57c0.63-1.03,1.39-2.14,2.29-3.33c0.9-1.19,1.89-2.3,2.96-3.34l0.4-0.4c0.45,0.54,1.04,1.27,1.79,2.19
		c0.74,0.92,1.48,1.87,2.22,2.83c0.74,0.97,1.39,1.85,1.95,2.66c0.56,0.81,0.91,1.37,1.04,1.68c0,1.93-0.35,3.86-1.04,5.79
		c-0.7,1.93-1.63,3.84-2.8,5.73c2.7-0.18,5.2-0.86,7.51-2.05c2.31-1.19,4.73-3.13,7.24-5.83c0.4,0.4,0.93,0.96,1.58,1.65
		c0.65,0.7,1.18,1.29,1.58,1.79c-1.89,1.98-3.74,3.62-5.56,4.92c-1.82,1.3-3.64,2.34-5.46,3.1c-1.82,0.76-3.67,1.31-5.56,1.65
		c-1.89,0.34-3.82,0.5-5.79,0.5c-1.53,1.62-3.17,3.1-4.92,4.45s-3.54,2.52-5.36,3.5s-3.63,1.75-5.42,2.29
		c-1.8,0.54-3.5,0.81-5.12,0.81c-1.35,0-2.74-0.4-4.18-1.21s-2.74-1.81-3.91-3c-1.17-1.19-2.13-2.46-2.9-3.81
		c-0.76-1.35-1.15-2.54-1.15-3.57c0-3.41,0.46-6.81,1.38-10.17c0.92-3.37,2.36-6.52,4.31-9.47s4.45-5.54,7.48-7.78
		c3.03-2.25,6.64-3.95,10.81-5.12c0.13-0.09,0.37-0.16,0.71-0.2c0.34-0.04,0.62-0.07,0.84-0.07c0.63,0,1.29,0.24,1.99,0.71
		c0.7,0.47,1.35,1,1.95,1.58c0.61,0.58,1.11,1.16,1.52,1.72s0.61,0.93,0.61,1.11c-0.09,0.23-0.43,0.51-1.01,0.84
		c-0.58,0.34-1.37,0.91-2.36,1.72c-0.99,0.81-2.16,1.97-3.5,3.47s-2.83,3.49-4.45,5.96c-2.43,3.64-4.07,6.93-4.92,9.87
		C129.86,94.42,129.43,96.69,129.43,98.31z M147.29,45.69c0,0.27-0.27,0.96-0.81,2.06s-1.16,2.25-1.85,3.44
		c-0.7,1.19-1.38,2.26-2.06,3.2s-1.17,1.42-1.48,1.42c-0.31,0-1.01-0.22-2.09-0.67c-1.08-0.45-2.19-0.97-3.34-1.55
		c-1.15-0.58-2.17-1.16-3.07-1.72c-0.9-0.56-1.35-0.95-1.35-1.18c0-0.67,0.26-1.64,0.77-2.9c0.52-1.26,1.11-2.5,1.79-3.74
		c0.67-1.23,1.32-2.3,1.95-3.2c0.63-0.9,1.06-1.35,1.28-1.35c0.58,0,1.45,0.28,2.59,0.84s2.28,1.2,3.4,1.92
		c1.12,0.72,2.11,1.42,2.96,2.09C146.86,45.01,147.29,45.46,147.29,45.69z M166.62,47.1c0,0.27-0.27,0.94-0.81,2.02
		s-1.16,2.21-1.85,3.4c-0.7,1.19-1.38,2.26-2.06,3.2s-1.17,1.42-1.48,1.42c-0.31,0-1.01-0.21-2.09-0.64s-2.19-0.93-3.34-1.52
		c-1.15-0.58-2.17-1.16-3.07-1.72c-0.9-0.56-1.35-0.95-1.35-1.18c0-0.67,0.26-1.64,0.77-2.9c0.52-1.26,1.11-2.5,1.79-3.74
		s1.32-2.3,1.95-3.2c0.63-0.9,1.06-1.35,1.28-1.35c0.58,0,1.45,0.28,2.59,0.84c1.15,0.56,2.28,1.19,3.4,1.89
		c1.12,0.7,2.11,1.38,2.96,2.06C166.2,46.36,166.62,46.83,166.62,47.1z"/>
    <path class="st1" d="M196.81,77.29c-0.58,1.75-1.31,3.75-2.19,6c-0.88,2.25-1.72,4.45-2.53,6.6s-1.49,4.11-2.06,5.86
		c-0.56,1.75-0.84,3.01-0.84,3.77c0,0.27,0.13,0.4,0.4,0.4c0.49,0,1.23-0.29,2.22-0.88c0.99-0.58,2.12-1.35,3.4-2.29
		s2.62-1.98,4.01-3.1c1.39-1.12,2.73-2.23,4.01-3.33s2.44-2.1,3.47-3c1.03-0.9,1.82-1.57,2.36-2.02c0.4,0.4,0.89,0.92,1.45,1.55
		c0.56,0.63,1.09,1.21,1.58,1.75c-0.99,0.99-2.22,2.19-3.71,3.61c-1.48,1.41-3.09,2.86-4.82,4.35c-1.73,1.48-3.53,2.96-5.39,4.45
		c-1.86,1.48-3.68,2.81-5.46,3.98c-1.77,1.17-3.43,2.11-4.95,2.83c-1.53,0.72-2.81,1.08-3.84,1.08c-0.67,0-1.53-0.24-2.56-0.71
		c-1.03-0.47-2.02-1.06-2.96-1.75s-1.75-1.47-2.43-2.32c-0.67-0.85-1.01-1.68-1.01-2.49c0.67-3.01,1.35-5.64,2.02-7.88
		c0.67-2.25,1.3-4.17,1.89-5.76c0.58-1.59,1.1-2.89,1.55-3.87c0.45-0.99,0.79-1.73,1.01-2.22c-0.54-0.22-1.06-0.47-1.55-0.74
		c-0.49-0.27-0.99-0.54-1.48-0.81c-0.72,0.76-1.52,1.57-2.39,2.43c-0.88,0.85-1.76,1.71-2.66,2.56c-0.9,0.85-1.8,1.68-2.7,2.49
		c-0.9,0.81-1.71,1.55-2.43,2.22l-3.23-3.3c1.17-1.12,2.57-2.48,4.21-4.08s3.25-3.2,4.82-4.82c-1.12-0.67-2.13-1.31-3.03-1.92
		c-0.9-0.61-1.66-1.16-2.29-1.65c-0.76-0.54-1.44-1.03-2.02-1.48c-0.27-0.13-0.4-0.43-0.4-0.88c0-0.49,0.19-1.2,0.57-2.12
		c0.38-0.92,0.87-1.91,1.45-2.96c0.58-1.05,1.21-2.13,1.89-3.23c0.67-1.1,1.32-2.1,1.95-3c0.63-0.9,1.18-1.63,1.65-2.19
		s0.77-0.84,0.91-0.84c0.09,0,0.39,0.11,0.91,0.34c0.52,0.23,1.07,0.48,1.65,0.78c0.58,0.29,1.12,0.62,1.62,0.98
		c0.49,0.36,0.81,0.67,0.94,0.94c0.04,0.23,0.09,0.7,0.13,1.42c0.04,0.72,0.09,1.59,0.13,2.63c1.75,0.9,3.55,1.92,5.39,3.07
		c1.84,1.14,3.53,2.23,5.05,3.27c1.8,1.17,3.5,2.36,5.12,3.57c0.58,0.36,0.95,0.81,1.11,1.35
		C196.93,76.41,196.94,76.88,196.81,77.29z"/>
    <path class="st1" d="M227.73,72.64c-0.54,1.44-1.08,2.9-1.62,4.38s-1.08,3.01-1.62,4.58c2.83-3.23,5.27-5.87,7.31-7.92
		c2.04-2.04,3.77-3.65,5.19-4.82c1.42-1.17,2.56-1.96,3.44-2.39s1.56-0.64,2.06-0.64c0.58,0,1.46,0.29,2.63,0.88
		c1.17,0.58,2.35,1.3,3.54,2.16c1.19,0.85,2.22,1.73,3.1,2.63c0.88,0.9,1.31,1.68,1.31,2.36c0,0.13-0.02,0.3-0.07,0.5
		c-0.05,0.2-0.11,0.46-0.2,0.78c-0.36,1.12-0.82,2.45-1.38,3.98c-0.56,1.53-1.16,3.11-1.79,4.75c-0.63,1.64-1.26,3.28-1.89,4.92
		c-0.63,1.64-1.19,3.18-1.68,4.62c-0.5,1.44-0.9,2.7-1.21,3.77c-0.32,1.08-0.47,1.86-0.47,2.36c0,0.27,0.13,0.4,0.4,0.4
		c0.49,0,1.23-0.29,2.22-0.88c0.99-0.58,2.12-1.35,3.4-2.29s2.62-1.98,4.01-3.1c1.39-1.12,2.73-2.23,4.01-3.33s2.44-2.1,3.47-3
		c1.03-0.9,1.82-1.57,2.36-2.02c0.45,0.4,0.94,0.92,1.48,1.55c0.54,0.63,1.05,1.21,1.55,1.75c-0.99,0.99-2.22,2.19-3.71,3.61
		c-1.48,1.41-3.09,2.86-4.82,4.35s-3.53,2.96-5.39,4.45s-3.67,2.81-5.42,3.98s-3.39,2.11-4.92,2.83c-1.53,0.72-2.81,1.08-3.84,1.08
		c-0.67,0-1.53-0.24-2.56-0.71c-1.03-0.47-2.03-1.06-3-1.75c-0.97-0.7-1.79-1.47-2.46-2.32c-0.67-0.85-1.01-1.68-1.01-2.49
		c0.4-1.84,0.95-3.93,1.65-6.27c0.7-2.33,1.45-4.73,2.26-7.18s1.65-4.87,2.53-7.28s1.72-4.62,2.53-6.64l-0.13,0.13
		c-0.85,1.03-2.08,2.39-3.67,4.08c-1.6,1.68-3.4,3.84-5.42,6.47c-2.02,2.63-4.16,5.79-6.4,9.5c-2.25,3.71-4.45,8.1-6.6,13.17
		c-0.27,0.63-0.52,1.12-0.74,1.48c-0.23,0.36-0.65,0.54-1.28,0.54c-0.76,0-1.63-0.21-2.59-0.64s-1.95-0.99-2.96-1.68
		c-1.01-0.7-2.02-1.47-3.03-2.33s-1.92-1.71-2.73-2.56c0-0.27,0.12-1.03,0.37-2.29c0.25-1.26,0.6-2.84,1.04-4.75
		c0.45-1.91,1.01-4.09,1.68-6.54s1.44-5.02,2.29-7.72c0.85-2.7,1.79-5.45,2.8-8.25c1.01-2.81,2.1-5.51,3.27-8.12
		c1.89,0.9,3.99,2,6.3,3.3C223.61,69.36,225.75,70.89,227.73,72.64z"/>
    <path class="st1" d="M384.85,19.07c0,2.11-0.44,4.46-1.31,7.04c-0.88,2.58-2.02,5.23-3.44,7.95c-1.42,2.72-3.06,5.45-4.92,8.19
		c-1.86,2.74-3.76,5.32-5.69,7.75c1.17,1.17,2.22,2.24,3.17,3.2c0.94,0.97,1.62,1.61,2.02,1.92c-0.63,1.08-1.49,2.66-2.59,4.75
		c-1.1,2.09-2.27,4.46-3.5,7.11c-1.24,2.65-2.49,5.46-3.77,8.42c-1.28,2.96-2.44,5.87-3.47,8.73c-1.03,2.85-1.88,5.55-2.53,8.09
		c-0.65,2.54-0.98,4.66-0.98,6.37c0,2.25,0.3,4.34,0.91,6.27c0.61,1.93,1.5,3.63,2.7,5.09s2.67,2.67,4.45,3.64s3.83,1.58,6.17,1.85
		l-3.3,4.38c-0.54,0-1.37-0.12-2.49-0.37c-1.12-0.25-2.38-0.67-3.77-1.28c-1.39-0.61-2.85-1.43-4.38-2.46
		c-1.53-1.03-2.96-2.35-4.31-3.94c-1.35-1.6-2.54-3.5-3.57-5.73c-1.03-2.22-1.75-4.84-2.16-7.85c-2.16,2.25-4.48,4.47-6.97,6.67
		c-2.49,2.2-5.06,4.18-7.71,5.93c-2.65,1.75-5.33,3.17-8.05,4.25s-5.36,1.62-7.92,1.62c-1.48,0-3-0.4-4.55-1.21s-3.08-1.88-4.58-3.2
		c-1.51-1.33-2.94-2.86-4.31-4.62c-1.37-1.75-2.58-3.56-3.64-5.42c-1.06-1.86-1.93-3.72-2.63-5.56c-0.7-1.84-1.11-3.55-1.25-5.12
		c0-0.58,0.01-1.29,0.03-2.12s0.06-1.7,0.1-2.59c0.05-0.9,0.1-1.77,0.17-2.63c0.07-0.85,0.15-1.62,0.24-2.29
		c0.67-4,1.75-8.22,3.23-12.67s3.29-8.96,5.42-13.54c2.13-4.58,4.55-9.14,7.24-13.68c2.7-4.54,5.62-8.87,8.76-13
		c3.14-4.13,6.47-7.96,9.97-11.49c3.5-3.53,7.11-6.58,10.81-9.16c3.71-2.58,7.48-4.62,11.32-6.1C357.6,0.74,361.42,0,365.24,0
		c1.3,0,2.7,0.34,4.18,1.01s2.95,1.55,4.41,2.63s2.85,2.3,4.18,3.67s2.49,2.76,3.5,4.18c1.01,1.41,1.82,2.79,2.43,4.11
		C384.55,16.92,384.85,18.08,384.85,19.07z M314.64,104.92c0.85,0,2.1-0.49,3.74-1.48c1.64-0.99,3.55-2.4,5.73-4.25
		c2.18-1.84,4.55-4.11,7.11-6.81s5.14-5.74,7.75-9.13c2.6-3.39,5.18-7.12,7.72-11.19c2.54-4.06,4.91-8.41,7.11-13.04l-7.95-7.95
		c0.76-0.81,1.95-1.89,3.57-3.23s3.41-2.94,5.39-4.78c1.98-1.84,4.01-3.9,6.1-6.17c2.09-2.27,4-4.72,5.73-7.34
		c1.73-2.63,3.16-5.39,4.28-8.29c1.12-2.9,1.68-5.92,1.68-9.06c0-1.75-0.35-3.09-1.04-4.01c-0.7-0.92-1.31-1.38-1.85-1.38
		c-2.65,0-5.54,0.96-8.66,2.86c-3.12,1.91-6.32,4.49-9.6,7.75c-3.28,3.26-6.57,7.06-9.87,11.42c-3.3,4.36-6.47,9.01-9.5,13.95
		c-3.03,4.94-5.86,10.02-8.49,15.23c-2.63,5.21-4.91,10.31-6.84,15.3c-1.93,4.99-3.46,9.73-4.58,14.22
		c-1.12,4.49-1.68,8.45-1.68,11.86C310.46,103.07,311.85,104.92,314.64,104.92z"/>
    <path class="st1" d="M392.86,100.47c0.72,0,1.7-0.31,2.93-0.94c1.23-0.63,2.59-1.43,4.08-2.39c1.48-0.96,3.03-2.03,4.65-3.2
		c1.62-1.17,3.13-2.31,4.55-3.44c1.42-1.12,2.68-2.16,3.81-3.1c1.12-0.94,1.95-1.64,2.49-2.09c0.4,0.4,0.89,0.92,1.45,1.55
		c0.56,0.63,1.09,1.21,1.58,1.75c-0.99,0.99-2.22,2.19-3.71,3.61c-1.48,1.41-3.09,2.86-4.82,4.35s-3.53,2.96-5.39,4.45
		s-3.68,2.81-5.46,3.98c-1.78,1.17-3.43,2.11-4.95,2.83c-1.53,0.72-2.81,1.08-3.84,1.08c-1.39,0-2.86-0.5-4.41-1.48
		c-1.55-0.99-3-2.15-4.35-3.47c-1.35-1.33-2.49-2.66-3.44-4.01s-1.48-2.36-1.62-3.03c-0.09-0.27-0.13-0.59-0.13-0.98
		c0-0.38,0-0.8,0-1.25c0-2.25,0.28-5.09,0.84-8.52c0.56-3.44,1.31-7.08,2.26-10.92c0.94-3.84,2.03-7.66,3.27-11.46
		c1.24-3.8,2.53-7.15,3.88-10.07c2.74-5.97,5.56-11.28,8.46-15.9c2.9-4.63,5.74-8.66,8.52-12.1c2.79-3.44,5.46-6.32,8.02-8.66
		c2.56-2.33,4.86-4.22,6.91-5.66c2.04-1.44,3.77-2.47,5.19-3.1c1.42-0.63,2.39-0.94,2.93-0.94c0.85,0.31,1.72,0.78,2.59,1.38
		c0.88,0.61,1.7,1.25,2.46,1.92c0.76,0.67,1.44,1.34,2.02,1.99c0.58,0.65,1.01,1.14,1.28,1.45c0.36,0.36,0.59,0.71,0.71,1.04
		c0.11,0.34,0.17,0.77,0.17,1.31c0,1.08-0.27,2.56-0.81,4.45s-1.55,4.28-3.03,7.18c-1.48,2.9-3.54,6.37-6.17,10.41
		c-2.63,4.04-6.05,8.76-10.28,14.15c-1.98,2.52-4.07,5.08-6.27,7.68c-1.89,2.25-4.07,4.69-6.54,7.34c-2.47,2.65-5.01,5.19-7.61,7.61
		c-1.3,4.94-2.21,9.3-2.73,13.07s-0.77,6.72-0.77,8.83c0,1.39,0.11,2.29,0.34,2.7C392.15,100.27,392.46,100.47,392.86,100.47z
		 M403.65,51.08c-0.76,1.71-1.47,3.37-2.12,4.99s-1.27,3.21-1.85,4.78c1.39-1.57,2.66-3.08,3.81-4.51c1.14-1.44,2.12-2.67,2.93-3.71
		c0.94-1.21,1.8-2.36,2.56-3.44c3.14-4.4,5.86-8.45,8.15-12.13c2.29-3.68,4.18-6.93,5.66-9.74c1.48-2.81,2.57-5.14,3.27-7.01
		c0.7-1.86,1.04-3.2,1.04-4.01c0-0.22-0.01-0.39-0.03-0.5c-0.02-0.11-0.15-0.17-0.37-0.17c-0.4,0-1.33,0.66-2.76,1.99
		c-1.44,1.33-3.2,3.43-5.29,6.3c-2.09,2.88-4.42,6.55-7.01,11.02S406.38,44.79,403.65,51.08z"/>
    <path class="st1" d="M433.15,72.64c-0.54,1.39-1.08,2.83-1.62,4.31s-1.06,2.99-1.55,4.51c2.83-3.37,5.18-6.06,7.04-8.09
		s3.41-3.59,4.65-4.72c1.23-1.12,2.26-1.91,3.07-2.36c0.81-0.45,1.55-0.79,2.22-1.01c0.4,0,1.09,0.23,2.05,0.67
		c0.97,0.45,2,1,3.1,1.65c1.1,0.65,2.15,1.33,3.13,2.02c0.99,0.7,1.68,1.27,2.09,1.72c0.36,0.36,0.4,0.88,0.13,1.55
		c-0.54,1.44-1.07,2.89-1.58,4.35s-1.02,2.95-1.52,4.48c3.01-3.46,5.53-6.23,7.55-8.32c2.02-2.09,3.67-3.69,4.95-4.82
		c1.28-1.12,2.28-1.86,3-2.22c0.72-0.36,1.28-0.54,1.68-0.54c0.58,0,1.46,0.29,2.63,0.88c1.17,0.58,2.35,1.3,3.54,2.16
		c1.19,0.85,2.22,1.73,3.1,2.63c0.88,0.9,1.31,1.68,1.31,2.36c0,0.13-0.02,0.3-0.07,0.5c-0.04,0.2-0.11,0.46-0.2,0.78
		c-0.36,1.12-0.82,2.45-1.38,3.98c-0.56,1.53-1.16,3.11-1.79,4.75c-0.63,1.64-1.26,3.28-1.89,4.92c-0.63,1.64-1.19,3.18-1.68,4.62
		c-0.5,1.44-0.9,2.7-1.21,3.77c-0.31,1.08-0.47,1.86-0.47,2.36c0,0.27,0.13,0.4,0.4,0.4c0.49,0,1.24-0.29,2.22-0.88
		c0.99-0.58,2.12-1.35,3.4-2.29c1.28-0.94,2.62-1.98,4.01-3.1c1.39-1.12,2.73-2.23,4.01-3.33c1.28-1.1,2.44-2.1,3.47-3
		c1.03-0.9,1.82-1.57,2.36-2.02c0.4,0.4,0.89,0.92,1.45,1.55c0.56,0.63,1.09,1.21,1.58,1.75c-0.99,0.99-2.22,2.19-3.71,3.61
		c-1.48,1.41-3.09,2.86-4.82,4.35s-3.53,2.96-5.39,4.45s-3.67,2.81-5.42,3.98s-3.39,2.11-4.92,2.83c-1.53,0.72-2.83,1.08-3.91,1.08
		c-0.67,0-1.53-0.24-2.56-0.71c-1.03-0.47-2.02-1.06-2.96-1.75s-1.75-1.47-2.43-2.32c-0.67-0.85-1.01-1.68-1.01-2.49
		c0.4-1.84,0.94-3.93,1.62-6.27c0.67-2.33,1.42-4.73,2.22-7.18s1.65-4.86,2.53-7.24c0.88-2.38,1.72-4.58,2.53-6.6
		c-0.9,1.08-2.09,2.38-3.57,3.91c-1.48,1.53-3.17,3.54-5.05,6.03c-1.89,2.49-3.91,5.58-6.06,9.26c-2.16,3.68-4.31,8.18-6.47,13.48
		c-0.27,0.9-0.92,1.35-1.95,1.35c-0.54,0-1.2-0.1-1.99-0.3c-0.79-0.2-1.62-0.52-2.49-0.94c-0.88-0.43-1.77-0.95-2.7-1.58
		s-1.79-1.39-2.59-2.29c0-0.31,0.17-1.27,0.51-2.86c0.34-1.59,0.83-3.63,1.48-6.1c0.65-2.47,1.42-5.23,2.32-8.29
		c0.9-3.05,1.91-6.2,3.03-9.43c-1.08,1.17-2.43,2.66-4.04,4.48c-1.62,1.82-3.35,4.02-5.19,6.6c-1.84,2.58-3.73,5.58-5.66,9
		c-1.93,3.41-3.75,7.28-5.46,11.59c-0.27,0.94-0.9,1.42-1.89,1.42c-0.76,0-1.63-0.21-2.59-0.64c-0.96-0.43-1.95-0.99-2.96-1.68
		c-1.01-0.7-2.02-1.47-3.03-2.33c-1.01-0.85-1.92-1.71-2.73-2.56c0-0.27,0.12-1.03,0.37-2.29c0.25-1.26,0.6-2.84,1.04-4.75
		c0.45-1.91,1-4.09,1.65-6.54c0.65-2.45,1.41-5.02,2.26-7.72c0.85-2.7,1.8-5.45,2.83-8.25c1.03-2.81,2.13-5.51,3.3-8.12
		c1.89,0.9,3.99,2,6.3,3.3C429.1,69.36,431.22,70.89,433.15,72.64z"/>
  </g>
</svg>
